<?xml version="1.0" encoding="UTF-8" standalone="no"?>
<!DOCTYPE svg PUBLIC "-//W3C//DTD SVG 1.1//EN" "http://www.w3.org/Graphics/SVG/1.1/DTD/svg11.dtd">
<svg width="100%" height="100%" viewBox="0 0 111 111" version="1.1" xmlns="http://www.w3.org/2000/svg" xmlns:xlink="http://www.w3.org/1999/xlink" xml:space="preserve" xmlns:serif="http://www.serif.com/" style="fill-rule:evenodd;clip-rule:evenodd;stroke-linejoin:round;stroke-miterlimit:2;">
    <g transform="matrix(1,0,0,1,-3085,-4348.58)">
        <g transform="matrix(1,0,0,4.32561,-175.853,2062.3)">
            <g id="YNAB" transform="matrix(1,0,0,0.857391,525,408.391)">
                <g transform="matrix(1,0,0,0.269633,-349.147,-1032.38)">
                    <path d="M3140.14,4359.69C3164.44,4359.69 3184.17,4379.42 3184.17,4403.72C3184.17,4428.02 3164.44,4447.76 3140.14,4447.76C3115.83,4447.76 3096.1,4428.02 3096.1,4403.72C3096.1,4379.42 3115.83,4359.69 3140.14,4359.69ZM3145.35,4435.36L3145.35,4426.03L3157.07,4426.03L3157.07,4419.54L3145.35,4419.54L3145.35,4413.63L3157.07,4413.63L3157.07,4407.14L3148.28,4407.14L3165.6,4376.09L3154.23,4376.09L3140.48,4402.13L3139.79,4402.13L3126.05,4376.09L3114.67,4376.09L3131.99,4407.14L3123.25,4407.14L3123.25,4413.63L3134.92,4413.63L3134.92,4419.54L3123.25,4419.54L3123.25,4426.03L3134.92,4426.03L3134.92,4435.36L3145.35,4435.36Z" style="fill:url(#_Linear1);"/>
                </g>
                <g transform="matrix(1,0,0,0.269633,175.853,-1032.38)">
                    <path d="M2615.92,4359.69C2625.68,4359.86 2634.68,4363.22 2641.91,4368.77L2606.16,4403.89C2601.3,4408.66 2593.48,4408.59 2588.7,4403.73C2583.93,4398.87 2584,4391.05 2588.86,4386.27L2615.92,4359.69Z" style="fill:white;fill-opacity:0.19;"/>
                </g>
                <g transform="matrix(1,0,0,0.269633,175.853,-1032.38)">
                    <path d="M2651.65,4379.11C2656.4,4386.14 2659.17,4394.61 2659.17,4403.72C2659.17,4404.63 2659.14,4405.53 2659.09,4406.42L2617.05,4447.71C2616.42,4447.74 2615.78,4447.76 2615.14,4447.76C2605.75,4447.76 2597.04,4444.81 2589.89,4439.79L2651.65,4379.11Z" style="fill:white;fill-opacity:0.19;"/>
                </g>
                <g transform="matrix(1.12427,0,0,0.303141,2165.69,114.839)">
                    <path d="M556.184,83.464C583.251,83.464 605.226,105.439 605.226,132.506C605.226,159.573 583.251,181.548 556.184,181.548C529.117,181.548 507.142,159.573 507.142,132.506C507.142,105.439 529.117,83.464 556.184,83.464ZM556.184,88.368C580.544,88.368 600.322,108.145 600.322,132.506C600.322,156.866 580.544,176.643 556.184,176.643C531.823,176.643 512.046,156.866 512.046,132.506C512.046,108.145 531.823,88.368 556.184,88.368Z" style="fill:url(#_Linear2);"/>
                </g>
            </g>
        </g>
    </g>
    <defs>
        <linearGradient id="_Linear1" x1="0" y1="0" x2="1" y2="0" gradientUnits="userSpaceOnUse" gradientTransform="matrix(5.39267e-15,88.069,-88.069,5.39267e-15,3140.14,4359.69)"><stop offset="0" style="stop-color:rgb(242,204,12);stop-opacity:1"/><stop offset="1" style="stop-color:rgb(255,152,48);stop-opacity:1"/></linearGradient>
        <linearGradient id="_Linear2" x1="0" y1="0" x2="1" y2="0" gradientUnits="userSpaceOnUse" gradientTransform="matrix(6.00591e-15,98.0839,-98.0839,6.00591e-15,556.184,83.4637)"><stop offset="0" style="stop-color:rgb(242,204,12);stop-opacity:1"/><stop offset="1" style="stop-color:rgb(255,152,48);stop-opacity:1"/></linearGradient>
    </defs>
</svg>
