<svg fill="#85c3e9" viewBox="0 0 20 20" xmlns="http://www.w3.org/2000/svg"><g fill="inherit"><path d="m16.1176 9.14822h-3.6517c-.08 0-.1741.05647-.2165.12236l-2.1882 3.61412c-.0424.0659-.10355.0659-.1459 0l-2.16471-3.61412c-.03765-.06589-.13647-.12236-.21177-.12236h-3.67058c-.08 0-.10353.05177-.06118.11765l4.32471 6.45643c.04235.0659.08.1789.08.2589v3.8776c0 .0753.06588.1412.14117.1412h3.27996c.0753 0 .1412-.0659.1412-.1412v-3.8776c0-.0753.0377-.193.08-.2589l4.3294-6.45643c.0424-.06588.0141-.11765-.0659-.11765z"/><path d="m9.7412 3.56235c.09411.05177.18823.09412.23529.09412.04701 0 .13181-.02823.23531-.09412 2.0706-1.32706.3482-2.950585-.23531-3.56235-.57882.611765-2.30118 2.24-.23529 3.56235z"/><path d="m7.56705 8.3953c.11765-.00942.22588-.02824.27294-.05647.04235-.02824.09883-.10353.1553-.22589 1.06823-2.43764-1.45883-2.86588-2.35295-3.06823-.16.90353-.73411 3.40235 1.92471 3.35059z"/><path d="m4.1788 7.86354c.09882-.06588.18823-.12706.21176-.17412s.03765-.14117.02824-.27294c-.19765-2.65412-2.63059-1.85412-3.515297-1.61412.287057.87059.945887 3.34589 3.275297 2.06118z"/><path d="m4.60235 12.3106c.04236-.1082.0753-.2165.06589-.2682-.00942-.0518-.05177-.1365-.13647-.24-1.73648-2.01415-3.21883.08-3.78824.7953.74824.5364 2.75294 2.1317 3.85882-.2871z"/><path d="m9.98116 4.23529c-.45647.51294-1.80235 1.88235-.18353 2.99294.07529.04236.14588.08.18353.08.03764 0 .10354-.02353.18354-.08 1.6188-1.11059.2729-2.48-.18354-2.99294z"/><path d="m5.52469 13.4447c-.02824-.0188-.08-.0329-.16471-.0329-1.61882-.0048-1.35058 1.5529-1.2847 2.1176.55059-.1365 2.10823-.4282 1.53412-1.9435-.02824-.0659-.06118-.1224-.08471-.1412z"/><path d="m9.79294 10.7765c.0753.0423.14589.08.18353.08.03763 0 .10353-.0235.18353-.08 1.6188-1.11531.2729-2.48002-.18353-2.99296-.45176.51294-1.80235 1.87765-.18353 2.99296z"/><path d="m2.96471 9.94352c.05176-.07059.09411-.14118.09882-.17883.00471-.03764-.01412-.10353-.06588-.19294-.96471-1.71294-2.447062-.49411-2.99765-.0847.470588.50823 1.71294 1.97175 2.96471.45647z"/><path d="m4.63527 5.23294c.0847-.0047.1647-.01882.19765-.03764.03294-.02353.07058-.08.10353-.16942.69176-1.84-1.19059-2.19294-1.85883-2.35294-.08.67765-.40941 2.56941 1.55765 2.56z"/><path d="m7.28942 4.63999c.09412.01882.18353.02824.22588.00941.04236-.01412.09883-.06588.16-.16 1.25177-1.81176-.70588-2.70588-1.38823-3.06353-.26824.72471-1.13412 2.69177 1.00235 3.21412z"/><path d="m12.1318 8.33883c.0423.02823.1553.04705.2729.05647 2.6588.05176 2.0847-2.45177 1.9294-3.35059-.8941.20235-3.4211.63059-2.3529 3.06823.047.12236.1035.19765.1506.22589z"/><path d="m15.5482 7.41176c-.0094.13647.0047.22588.0283.27294.0235.04706.1129.11294.2117.17412 2.3294 1.28941 2.9883-1.19059 3.2706-2.06118-.88-.23529-3.3176-1.03529-3.5106 1.61412z"/><path d="m15.44 11.8071c-.0894.1035-.1317.1835-.1364.24-.0095.0517.0235.16.0658.2682 1.1059 2.4188 3.1106.8188 3.8589.2871-.5742-.72-2.0565-2.81417-3.7883-.7953z"/><path d="m14.6071 13.4118c-.08 0-.1365.0141-.1647.0329-.0283.0188-.0565.0753-.0894.1412-.5741 1.5153.9835 1.807 1.5341 1.9435.0706-.5647.3388-2.1224-1.28-2.1176z"/><path d="m16.9694 9.57648c-.0471.08471-.0659.15059-.0659.19294.0047.03765.0471.10824.0988.17883 1.2518 1.51055 2.4941.04706 2.9647-.45177-.5506-.41412-2.0329-1.63294-2.9976.08z"/><path d="m15.1341 5.1906c.033.02353.113.03294.1977.03765 1.9623.00941 1.6376-1.88235 1.5576-2.56471-.6682.16471-2.5553.51765-1.8588 2.35294.0376.09883.0753.1553.1035.17412z"/><path d="m12.4518 4.64943c.0423.01411.1317.0047.2258-.00942 2.1365-.52235 1.2753-2.48941 1.0024-3.20941-.6824.35765-2.64 1.25177-1.3882 3.06353.0658.08941.1223.14118.16.1553z"/></g></svg>
